<svg width="639" height="626" viewBox="0 0 639 626" fill="none" xmlns="http://www.w3.org/2000/svg">
<path d="M502.173 104.637C553.198 141.884 587.549 201.354 598.554 263.954C609.56 326.554 597.887 392.597 560.202 436.104C522.516 479.298 458.818 499.956 398.454 515.293C337.757 530.63 279.728 540.646 231.704 524.37C183.347 508.094 145.328 466.152 122.65 420.141C99.972 373.817 93.302 323.737 109.31 284.612C125.651 245.174 165.004 216.691 203.023 177.253C240.709 137.815 277.727 87.4223 330.087 69.8943C382.78 52.3663 450.814 67.3903 502.173 104.637Z" fill="#EA4C89"/>
<path d="M493.261 106.107C544.286 143.354 578.637 202.824 589.642 265.424C600.648 328.024 588.975 394.067 551.29 437.574C513.604 480.768 449.906 501.426 389.542 516.763C328.845 532.1 270.816 542.116 222.792 525.84C174.435 509.564 136.416 467.622 113.738 421.611C91.0596 375.287 84.3896 325.207 100.398 286.082C116.739 246.644 156.092 218.161 194.111 178.723C231.797 139.285 268.815 88.8919 321.175 71.3639C373.868 53.8359 441.902 68.8599 493.261 106.107Z" fill="#F8F8F8"/>
<path d="M270.158 148.422H274.631V169.697H270.158V148.422Z" fill="#29292E"/>
<path d="M292.745 162.041C292.745 162.099 292.716 162.5 292.659 163.245H280.99C281.2 164.201 281.697 164.956 282.481 165.511C283.264 166.065 284.239 166.342 285.405 166.342C286.208 166.342 286.915 166.227 287.527 165.998C288.158 165.75 288.741 165.367 289.276 164.851L291.656 167.432C290.203 169.095 288.081 169.926 285.29 169.926C283.551 169.926 282.012 169.592 280.674 168.923C279.336 168.234 278.304 167.288 277.578 166.084C276.851 164.88 276.488 163.513 276.488 161.984C276.488 160.474 276.842 159.117 277.549 157.913C278.275 156.689 279.26 155.743 280.502 155.074C281.764 154.386 283.169 154.042 284.717 154.042C286.227 154.042 287.594 154.367 288.817 155.017C290.04 155.667 290.996 156.603 291.684 157.827C292.392 159.031 292.745 160.436 292.745 162.041ZM284.746 157.425C283.733 157.425 282.882 157.712 282.194 158.285C281.506 158.859 281.085 159.642 280.932 160.636H288.53C288.377 159.662 287.957 158.887 287.269 158.314C286.581 157.721 285.74 157.425 284.746 157.425Z" fill="#29292E"/>
<path d="M304.525 168.951C304.086 169.276 303.541 169.525 302.891 169.697C302.26 169.85 301.591 169.926 300.884 169.926C299.049 169.926 297.625 169.458 296.612 168.521C295.618 167.585 295.121 166.208 295.121 164.392V158.056H292.741V154.615H295.121V150.859H299.594V154.615H303.436V158.056H299.594V164.335C299.594 164.985 299.756 165.491 300.081 165.855C300.425 166.199 300.903 166.371 301.515 166.371C302.222 166.371 302.824 166.18 303.321 165.797L304.525 168.951Z" fill="#29292E"/>
<path d="M325.644 154.042C327.575 154.042 329.104 154.615 330.232 155.762C331.379 156.89 331.952 158.591 331.952 160.866V169.697H327.479V161.554C327.479 160.331 327.221 159.423 326.705 158.83C326.208 158.218 325.491 157.913 324.555 157.913C323.503 157.913 322.672 158.257 322.06 158.945C321.448 159.614 321.143 160.617 321.143 161.955V169.697H316.67V161.554C316.67 159.126 315.695 157.913 313.745 157.913C312.713 157.913 311.891 158.257 311.28 158.945C310.668 159.614 310.362 160.617 310.362 161.955V169.697H305.889V154.271H310.161V156.049C310.735 155.399 311.432 154.902 312.254 154.558C313.095 154.214 314.013 154.042 315.007 154.042C316.096 154.042 317.081 154.262 317.96 154.701C318.839 155.122 319.547 155.743 320.082 156.565C320.713 155.762 321.506 155.141 322.462 154.701C323.436 154.262 324.497 154.042 325.644 154.042Z" fill="#29292E"/>
<path d="M350.092 162.041C350.092 162.099 350.064 162.5 350.006 163.245H338.337C338.547 164.201 339.044 164.956 339.828 165.511C340.611 166.065 341.586 166.342 342.752 166.342C343.555 166.342 344.262 166.227 344.874 165.998C345.505 165.75 346.088 165.367 346.623 164.851L349.003 167.432C347.55 169.095 345.428 169.926 342.638 169.926C340.898 169.926 339.359 169.592 338.021 168.923C336.683 168.234 335.651 167.288 334.925 166.084C334.199 164.88 333.835 163.513 333.835 161.984C333.835 160.474 334.189 159.117 334.896 157.913C335.623 156.689 336.607 155.743 337.849 155.074C339.111 154.386 340.516 154.042 342.064 154.042C343.574 154.042 344.941 154.367 346.164 155.017C347.388 155.667 348.343 156.603 349.031 157.827C349.739 159.031 350.092 160.436 350.092 162.041ZM342.093 157.425C341.08 157.425 340.229 157.712 339.541 158.285C338.853 158.859 338.432 159.642 338.279 160.636H345.878C345.725 159.662 345.304 158.887 344.616 158.314C343.928 157.721 343.087 157.425 342.093 157.425Z" fill="#29292E"/>
<path d="M376.244 154.271L373.176 169.697H368.933L369.219 168.177C367.939 169.343 366.362 169.926 364.489 169.926C363.284 169.926 362.176 169.649 361.163 169.095C360.15 168.54 359.337 167.747 358.725 166.715C358.133 165.663 357.837 164.431 357.837 163.016C357.837 161.315 358.209 159.786 358.955 158.429C359.719 157.052 360.752 155.982 362.051 155.217C363.351 154.434 364.785 154.042 366.352 154.042C368.722 154.042 370.395 154.816 371.37 156.364L371.771 154.271H376.244ZM365.865 166.227C366.744 166.227 367.528 166.017 368.216 165.597C368.904 165.157 369.439 164.555 369.822 163.79C370.204 163.026 370.395 162.146 370.395 161.152C370.395 160.101 370.08 159.27 369.449 158.658C368.837 158.046 367.977 157.74 366.868 157.74C365.989 157.74 365.205 157.96 364.517 158.4C363.829 158.82 363.294 159.413 362.912 160.178C362.529 160.942 362.338 161.821 362.338 162.815C362.338 163.867 362.644 164.698 363.256 165.31C363.886 165.922 364.756 166.227 365.865 166.227Z" fill="url(#paint0_linear)"/>
<path d="M381.79 169.926C380.452 169.926 379.181 169.783 377.977 169.496C376.792 169.19 375.865 168.798 375.195 168.32L376.916 165.081C377.585 165.52 378.397 165.874 379.353 166.141C380.328 166.409 381.303 166.543 382.277 166.543C383.291 166.543 384.046 166.419 384.543 166.17C385.04 165.902 385.288 165.53 385.288 165.052C385.288 164.67 385.068 164.392 384.629 164.22C384.189 164.048 383.482 163.867 382.507 163.676C381.398 163.465 380.481 163.236 379.754 162.987C379.047 162.739 378.426 162.338 377.891 161.783C377.375 161.21 377.117 160.436 377.117 159.461C377.117 157.76 377.824 156.431 379.238 155.475C380.672 154.52 382.545 154.042 384.858 154.042C385.928 154.042 386.97 154.157 387.983 154.386C388.996 154.615 389.856 154.931 390.564 155.332L388.958 158.601C387.696 157.817 386.177 157.425 384.399 157.425C383.424 157.425 382.679 157.568 382.163 157.855C381.666 158.142 381.417 158.505 381.417 158.945C381.417 159.346 381.637 159.642 382.077 159.834C382.516 160.006 383.252 160.197 384.284 160.407C385.374 160.617 386.263 160.847 386.951 161.095C387.658 161.324 388.27 161.716 388.786 162.271C389.302 162.825 389.56 163.58 389.56 164.536C389.56 166.256 388.834 167.585 387.381 168.521C385.947 169.458 384.084 169.926 381.79 169.926Z" fill="url(#paint1_linear)"/>
<path d="M401.753 160.98L407.057 169.697H401.868L398.198 163.704L395.474 165.969L394.728 169.697H390.255L394.499 148.422H398.972L396.592 160.321L403.989 154.271H409.81L401.753 160.98Z" fill="url(#paint2_linear)"/>
<path d="M351.242 145.325V138.157C351.242 134.99 353.81 132.423 356.977 132.423H418.621C421.788 132.423 424.356 134.99 424.356 138.157V178.298C424.356 181.465 421.788 184.033 418.621 184.033H408.586L411.94 199.683C412.233 201.051 410.594 201.986 409.566 201.037L394.25 186.9H356.977C353.81 186.9 351.242 184.332 351.242 181.165V178.298" stroke="url(#paint3_linear)" stroke-width="4.30079"/>
<g clip-path="url(#clip0)">
<path d="M530.5 447.681H153.754C153.609 447.681 153.47 447.611 153.368 447.486C153.266 447.361 153.208 447.191 153.208 447.014C153.208 446.837 153.266 446.667 153.368 446.542C153.47 446.417 153.609 446.347 153.754 446.347H530.5C530.645 446.347 530.784 446.417 530.886 446.542C530.989 446.667 531.046 446.837 531.046 447.014C531.046 447.191 530.989 447.361 530.886 447.486C530.784 447.611 530.645 447.681 530.5 447.681Z" fill="#CCCCCC"/>
<path d="M493.21 331.339H271.531C270.589 331.339 269.687 331.795 269.021 332.609C268.355 333.422 267.981 334.525 267.981 335.675C267.981 336.825 268.355 337.928 269.021 338.741C269.687 339.554 270.589 340.011 271.531 340.011H277.81V443.744C277.81 444.894 278.184 445.997 278.849 446.81C279.515 447.623 280.417 448.08 281.359 448.08C282.3 448.08 283.203 447.623 283.868 446.81C284.534 445.997 284.908 444.894 284.908 443.744L284.962 340.011H479.287V443.744C479.287 444.894 479.661 445.997 480.326 446.81C480.992 447.623 481.895 448.08 482.836 448.08C483.777 448.08 484.68 447.623 485.346 446.81C486.011 445.997 486.385 444.894 486.385 443.744V342.297L487.418 340.011H493.21C494.151 340.011 495.054 339.554 495.72 338.741C496.385 337.928 496.759 336.825 496.759 335.675C496.759 334.525 496.385 333.422 495.72 332.609C495.054 331.795 494.151 331.339 493.21 331.339V331.339Z" fill="#CCCCCC"/>
<path d="M394.431 333.608H327.282C325.982 333.606 324.735 332.974 323.816 331.851C322.897 330.728 322.38 329.205 322.378 327.616V282.448C322.38 280.859 322.897 279.336 323.816 278.213C324.735 277.09 325.982 276.458 327.282 276.456H394.431C395.732 276.458 396.978 277.09 397.898 278.213C398.817 279.336 399.334 280.859 399.336 282.448V327.616C399.334 329.205 398.817 330.728 397.898 331.851C396.978 332.974 395.732 333.606 394.431 333.608V333.608Z" fill="#3F3D56"/>
<path d="M394.431 281.067H327.283C326.983 281.068 326.696 281.214 326.484 281.473C326.272 281.731 326.153 282.082 326.152 282.448V327.617C326.153 327.983 326.272 328.334 326.484 328.593C326.696 328.852 326.983 328.997 327.283 328.998H394.431C394.731 328.997 395.018 328.852 395.23 328.593C395.441 328.334 395.561 327.983 395.561 327.617V282.448C395.561 282.082 395.441 281.731 395.23 281.473C395.018 281.214 394.731 281.068 394.431 281.067V281.067Z" fill="white"/>
<path d="M366.584 313.047C366.584 313.047 358.545 310.784 354.124 314.933C349.703 319.082 359.751 328.511 359.751 328.511L366.584 313.047Z" fill="#2F2E41"/>
<path d="M361.251 308.771C365.438 308.771 368.833 304.623 368.833 299.507C368.833 294.39 365.438 290.243 361.251 290.243C357.063 290.243 353.668 294.39 353.668 299.507C353.668 304.623 357.063 308.771 361.251 308.771Z" fill="#A0616A"/>
<path d="M355.387 286.502C355.893 285.454 356.626 284.596 357.505 284.025C358.385 283.453 359.376 283.189 360.37 283.263C361.41 283.422 362.425 283.769 363.382 284.293L368.339 286.655C369.621 287.267 371.026 288.015 371.583 289.554C372.099 290.982 371.714 292.631 371.324 294.118L369.469 301.184C369.264 299.585 368.911 298.019 368.418 296.516C367.917 295.003 367.012 293.742 365.85 292.938C364.562 292.131 363.045 292.148 361.599 292.233C359.552 292.353 357.326 292.671 355.872 294.435C355.1 295.437 354.576 296.686 354.362 298.037C354.152 299.381 354.046 300.746 354.046 302.114C353.206 300.351 352.499 298.499 351.933 296.58C351.467 295.152 351.202 293.637 351.148 292.101C351.1 290.551 351.52 289.034 352.33 287.84C352.741 287.257 353.277 286.825 353.878 286.594C354.48 286.363 355.122 286.341 355.732 286.532L355.387 286.502Z" fill="#2F2E41"/>
<path d="M379.355 321.08C379.284 320.767 379.139 320.487 378.938 320.274C378.737 320.062 378.489 319.927 378.225 319.886C378.208 319.871 378.19 319.857 378.171 319.846L366.851 312.095C366.528 311.874 366.147 311.813 365.789 311.926C365.43 312.039 365.12 312.317 364.925 312.701L361.829 318.825L357.166 313.128L357.092 313.037C356.852 312.745 356.537 312.565 356.199 312.529C355.862 312.493 355.525 312.603 355.248 312.84L345.945 320.8C345.929 320.8 345.913 320.806 345.896 320.806C345.451 320.897 345.044 321.171 344.744 321.582C344.443 321.993 344.266 322.517 344.242 323.068L344.001 328.998H381.152L379.355 321.08Z" fill="#835AFD"/>
<path d="M400.09 328.077H392.922C392.922 327.832 392.843 327.598 392.702 327.425C392.56 327.252 392.368 327.155 392.168 327.155H389.905C389.704 327.155 389.513 327.252 389.371 327.425C389.23 327.598 389.15 327.832 389.15 328.077H386.887C386.887 327.832 386.807 327.598 386.666 327.425C386.524 327.252 386.332 327.155 386.132 327.155H383.869C383.669 327.155 383.477 327.252 383.335 327.425C383.194 327.598 383.114 327.832 383.114 328.077H380.851C380.851 327.832 380.771 327.598 380.63 327.425C380.488 327.252 380.296 327.155 380.096 327.155H377.833C377.633 327.155 377.441 327.252 377.299 327.425C377.158 327.598 377.078 327.832 377.078 328.077H374.815C374.815 327.832 374.735 327.598 374.594 327.425C374.452 327.252 374.261 327.155 374.06 327.155H371.797C371.597 327.155 371.405 327.252 371.263 327.425C371.122 327.598 371.042 327.832 371.042 328.077H368.779C368.779 327.832 368.7 327.598 368.558 327.425C368.417 327.252 368.225 327.155 368.025 327.155H365.761C365.561 327.155 365.369 327.252 365.228 327.425C365.086 327.598 365.007 327.832 365.007 328.077H362.743C362.743 327.832 362.664 327.598 362.522 327.425C362.381 327.252 362.189 327.155 361.989 327.155H359.725C359.525 327.155 359.333 327.252 359.192 327.425C359.05 327.598 358.971 327.832 358.971 328.077H356.707C356.707 327.832 356.628 327.598 356.486 327.425C356.345 327.252 356.153 327.155 355.953 327.155H353.689C353.489 327.155 353.297 327.252 353.156 327.425C353.014 327.598 352.935 327.832 352.935 328.077H350.671C350.671 327.832 350.592 327.598 350.45 327.425C350.309 327.252 350.117 327.155 349.917 327.155H347.653C347.453 327.155 347.261 327.252 347.12 327.425C346.978 327.598 346.899 327.832 346.899 328.077H344.635C344.635 327.832 344.556 327.598 344.415 327.425C344.273 327.252 344.081 327.155 343.881 327.155H341.618C341.417 327.155 341.226 327.252 341.084 327.425C340.943 327.598 340.863 327.832 340.863 328.077H338.6C338.6 327.832 338.52 327.598 338.379 327.425C338.237 327.252 338.045 327.155 337.845 327.155H335.582C335.382 327.155 335.19 327.252 335.048 327.425C334.907 327.598 334.827 327.832 334.827 328.077H332.564C332.564 327.832 332.484 327.598 332.343 327.425C332.201 327.252 332.009 327.155 331.809 327.155H329.546C329.346 327.155 329.154 327.252 329.012 327.425C328.871 327.598 328.791 327.832 328.791 328.077H321.624C321.024 328.078 320.449 328.37 320.025 328.888C319.602 329.407 319.364 330.11 319.364 330.842C319.364 331.575 319.602 332.278 320.025 332.796C320.449 333.315 321.024 333.607 321.624 333.608H400.09C400.69 333.608 401.266 333.316 401.691 332.798C402.115 332.279 402.354 331.576 402.354 330.842C402.354 330.109 402.115 329.406 401.691 328.887C401.266 328.368 400.69 328.077 400.09 328.077V328.077Z" fill="#3F3D56"/>
<path d="M309.956 312.017V330.38H272.302C271.293 330.423 270.287 330.217 269.345 329.775C268.403 329.333 267.543 328.663 266.817 327.807C266.09 326.95 265.513 325.923 265.119 324.788C264.724 323.653 264.521 322.432 264.521 321.199C264.521 319.965 264.724 318.745 265.119 317.609C265.513 316.474 266.09 315.447 266.817 314.591C267.543 313.734 268.403 313.064 269.345 312.622C270.287 312.18 271.293 311.975 272.302 312.017H309.956Z" fill="#F2F2F2"/>
<path d="M310.881 330.238C310.881 330.426 310.82 330.605 310.711 330.738C310.603 330.87 310.456 330.945 310.303 330.945H271.631C269.531 330.945 267.516 329.925 266.031 328.111C264.546 326.296 263.712 323.835 263.712 321.269C263.712 318.703 264.546 316.242 266.031 314.428C267.516 312.613 269.531 311.594 271.631 311.594H310.303C310.456 311.594 310.603 311.668 310.711 311.801C310.82 311.933 310.881 312.113 310.881 312.3C310.881 312.487 310.82 312.667 310.711 312.799C310.603 312.932 310.456 313.006 310.303 313.006H271.631C269.838 313.008 268.12 313.88 266.853 315.429C265.586 316.978 264.874 319.079 264.874 321.269C264.874 323.459 265.586 325.56 266.853 327.109C268.12 328.659 269.838 329.53 271.631 329.532H310.303C310.456 329.532 310.603 329.607 310.711 329.739C310.82 329.872 310.881 330.051 310.881 330.238V330.238Z" fill="#835AFD"/>
<path d="M309.956 316.255H269.492C269.477 316.255 269.462 316.251 269.448 316.244C269.434 316.237 269.421 316.227 269.41 316.214C269.399 316.201 269.391 316.185 269.385 316.168C269.379 316.151 269.376 316.132 269.376 316.114C269.376 316.095 269.379 316.076 269.385 316.059C269.391 316.042 269.399 316.026 269.41 316.013C269.421 316 269.434 315.99 269.448 315.983C269.462 315.976 269.477 315.972 269.492 315.972H309.956C309.986 315.973 310.016 315.988 310.037 316.014C310.059 316.04 310.071 316.076 310.071 316.114C310.071 316.151 310.059 316.187 310.037 316.213C310.016 316.24 309.986 316.255 309.956 316.255V316.255Z" fill="#CCCCCC"/>
<path d="M309.956 319.645H269.492C269.477 319.645 269.462 319.641 269.448 319.634C269.434 319.627 269.421 319.617 269.41 319.604C269.399 319.591 269.391 319.575 269.385 319.558C269.379 319.541 269.376 319.522 269.376 319.504C269.376 319.485 269.379 319.467 269.385 319.449C269.391 319.432 269.399 319.417 269.41 319.403C269.421 319.39 269.434 319.38 269.448 319.373C269.462 319.366 269.477 319.362 269.492 319.362H309.956C309.986 319.363 310.016 319.378 310.037 319.404C310.059 319.431 310.071 319.466 310.071 319.504C310.071 319.541 310.059 319.577 310.037 319.603C310.016 319.63 309.986 319.645 309.956 319.645V319.645Z" fill="#CCCCCC"/>
<path d="M309.956 323.035H269.492C269.477 323.035 269.462 323.031 269.448 323.024C269.434 323.017 269.421 323.007 269.41 322.994C269.399 322.981 269.391 322.965 269.385 322.948C269.379 322.931 269.376 322.912 269.376 322.893C269.376 322.875 269.379 322.856 269.385 322.839C269.391 322.822 269.399 322.806 269.41 322.793C269.421 322.78 269.434 322.77 269.448 322.763C269.462 322.756 269.477 322.752 269.492 322.752H309.956C309.986 322.752 310.016 322.767 310.037 322.794C310.059 322.82 310.071 322.856 310.071 322.893C310.071 322.931 310.059 322.967 310.037 322.993C310.016 323.019 309.986 323.034 309.956 323.035V323.035Z" fill="#CCCCCC"/>
<path d="M309.956 326.425H269.492C269.477 326.425 269.462 326.421 269.448 326.414C269.434 326.407 269.421 326.397 269.41 326.384C269.399 326.371 269.391 326.355 269.385 326.338C269.379 326.321 269.376 326.302 269.376 326.283C269.376 326.265 269.379 326.246 269.385 326.229C269.391 326.212 269.399 326.196 269.41 326.183C269.421 326.17 269.434 326.16 269.448 326.153C269.462 326.146 269.477 326.142 269.492 326.142H309.956C309.986 326.142 310.016 326.157 310.037 326.184C310.059 326.21 310.071 326.246 310.071 326.283C310.071 326.321 310.059 326.357 310.037 326.383C310.016 326.409 309.986 326.424 309.956 326.425Z" fill="#CCCCCC"/>
<path d="M302.858 292.672V311.034H265.204C264.195 311.077 263.189 310.871 262.247 310.429C261.304 309.987 260.445 309.317 259.718 308.461C258.992 307.604 258.415 306.577 258.02 305.442C257.626 304.307 257.423 303.086 257.423 301.853C257.423 300.619 257.626 299.399 258.02 298.263C258.415 297.128 258.992 296.102 259.718 295.245C260.445 294.388 261.304 293.719 262.247 293.276C263.189 292.834 264.195 292.629 265.204 292.672H302.858Z" fill="#F2F2F2"/>
<path d="M303.783 310.893C303.783 311.08 303.722 311.26 303.613 311.392C303.505 311.524 303.358 311.599 303.205 311.599H264.533C263.493 311.599 262.463 311.349 261.502 310.862C260.542 310.376 259.669 309.663 258.933 308.765C258.198 307.867 257.615 306.8 257.217 305.626C256.819 304.452 256.614 303.194 256.614 301.923C256.614 300.653 256.819 299.395 257.217 298.221C257.615 297.047 258.198 295.98 258.933 295.082C259.669 294.183 260.542 293.471 261.502 292.984C262.463 292.498 263.493 292.248 264.533 292.248H303.205C303.358 292.248 303.505 292.322 303.613 292.455C303.722 292.587 303.783 292.767 303.783 292.954C303.783 293.141 303.722 293.321 303.613 293.454C303.505 293.586 303.358 293.66 303.205 293.66H264.533C262.74 293.662 261.022 294.534 259.755 296.083C258.488 297.633 257.776 299.733 257.776 301.923C257.776 304.114 258.488 306.214 259.755 307.764C261.022 309.313 262.74 310.184 264.533 310.186H303.205C303.358 310.187 303.505 310.261 303.613 310.393C303.722 310.526 303.783 310.705 303.783 310.893V310.893Z" fill="#3F3D56"/>
<path d="M302.858 296.909H262.394C262.379 296.909 262.364 296.906 262.35 296.898C262.336 296.891 262.323 296.881 262.312 296.868C262.301 296.855 262.293 296.839 262.287 296.822C262.281 296.805 262.278 296.786 262.278 296.768C262.278 296.749 262.281 296.731 262.287 296.713C262.293 296.696 262.301 296.681 262.312 296.668C262.323 296.654 262.336 296.644 262.35 296.637C262.364 296.63 262.379 296.626 262.394 296.626H302.858C302.888 296.627 302.917 296.642 302.939 296.668C302.96 296.695 302.973 296.73 302.973 296.768C302.973 296.805 302.96 296.841 302.939 296.867C302.917 296.894 302.888 296.909 302.858 296.909V296.909Z" fill="#CCCCCC"/>
<path d="M302.858 300.299H262.394C262.379 300.299 262.364 300.296 262.35 300.289C262.336 300.282 262.323 300.271 262.312 300.258C262.301 300.245 262.293 300.229 262.287 300.212C262.281 300.195 262.278 300.176 262.278 300.158C262.278 300.139 262.281 300.121 262.287 300.104C262.293 300.086 262.301 300.071 262.312 300.058C262.323 300.044 262.336 300.034 262.35 300.027C262.364 300.02 262.379 300.016 262.394 300.017H302.858C302.888 300.017 302.917 300.032 302.939 300.058C302.96 300.085 302.973 300.121 302.973 300.158C302.973 300.195 302.96 300.231 302.939 300.257C302.917 300.284 302.888 300.299 302.858 300.299V300.299Z" fill="#CCCCCC"/>
<path d="M302.858 303.689H262.394C262.379 303.689 262.364 303.686 262.35 303.679C262.336 303.671 262.323 303.661 262.312 303.648C262.301 303.635 262.293 303.619 262.287 303.602C262.281 303.585 262.278 303.566 262.278 303.548C262.278 303.529 262.281 303.511 262.287 303.493C262.293 303.476 262.301 303.461 262.312 303.448C262.323 303.434 262.336 303.424 262.35 303.417C262.364 303.41 262.379 303.406 262.394 303.406H302.858C302.888 303.407 302.917 303.422 302.939 303.448C302.96 303.475 302.973 303.51 302.973 303.548C302.973 303.585 302.96 303.621 302.939 303.647C302.917 303.674 302.888 303.689 302.858 303.689V303.689Z" fill="#CCCCCC"/>
<path d="M302.858 307.079H262.394C262.379 307.079 262.364 307.076 262.35 307.069C262.336 307.061 262.323 307.051 262.312 307.038C262.301 307.025 262.293 307.009 262.287 306.992C262.281 306.975 262.278 306.956 262.278 306.938C262.278 306.919 262.281 306.901 262.287 306.883C262.293 306.866 262.301 306.851 262.312 306.838C262.323 306.824 262.336 306.814 262.35 306.807C262.364 306.8 262.379 306.796 262.394 306.797H302.858C302.888 306.797 302.917 306.812 302.939 306.838C302.96 306.865 302.973 306.9 302.973 306.938C302.973 306.975 302.96 307.011 302.939 307.037C302.917 307.064 302.888 307.079 302.858 307.079Z" fill="#CCCCCC"/>
<path d="M346.661 395.648V379.637C346.661 378.93 346.431 378.251 346.021 377.751C345.611 377.25 345.056 376.969 344.477 376.969H294.79C294.211 376.969 293.655 377.25 293.246 377.751C292.836 378.251 292.606 378.93 292.606 379.637V395.648H346.661Z" fill="#CCCCCC"/>
<path d="M346.661 401.652H292.606V422.332H346.661V401.652Z" fill="#CCCCCC"/>
<path d="M292.606 428.335V444.346C292.606 445.053 292.836 445.732 293.246 446.232C293.655 446.733 294.211 447.014 294.79 447.014H344.477C345.056 447.014 345.611 446.733 346.021 446.232C346.431 445.732 346.661 445.053 346.661 444.346V428.335H292.606Z" fill="#CCCCCC"/>
<path d="M319.36 388.977C320.265 388.977 320.998 388.081 320.998 386.975C320.998 385.87 320.265 384.974 319.36 384.974C318.456 384.974 317.722 385.87 317.722 386.975C317.722 388.081 318.456 388.977 319.36 388.977Z" fill="white"/>
<path d="M319.36 415.66C320.265 415.66 320.998 414.764 320.998 413.659C320.998 412.554 320.265 411.658 319.36 411.658C318.456 411.658 317.722 412.554 317.722 413.659C317.722 414.764 318.456 415.66 319.36 415.66Z" fill="white"/>
<path d="M319.448 441.779C320.353 441.779 321.086 440.883 321.086 439.778C321.086 438.673 320.353 437.777 319.448 437.777C318.543 437.777 317.81 438.673 317.81 439.778C317.81 440.883 318.543 441.779 319.448 441.779Z" fill="white"/>
<path d="M340.532 358.714V377.076H302.878C301.869 377.119 300.864 376.914 299.921 376.471C298.979 376.029 298.119 375.36 297.393 374.503C296.667 373.646 296.09 372.62 295.695 371.484C295.301 370.349 295.098 369.129 295.098 367.895C295.098 366.662 295.301 365.441 295.695 364.306C296.09 363.171 296.667 362.144 297.393 361.287C298.119 360.43 298.979 359.761 299.921 359.319C300.864 358.877 301.869 358.671 302.878 358.714H340.532Z" fill="#F2F2F2"/>
<path d="M341.457 376.935C341.457 377.122 341.396 377.302 341.288 377.434C341.179 377.567 341.032 377.641 340.879 377.641H302.208C301.167 377.642 300.137 377.393 299.175 376.907C298.213 376.421 297.34 375.709 296.604 374.81C295.867 373.912 295.284 372.845 294.885 371.67C294.487 370.496 294.282 369.237 294.282 367.966C294.282 366.694 294.487 365.436 294.885 364.261C295.284 363.087 295.867 362.02 296.604 361.121C297.34 360.223 298.213 359.51 299.175 359.024C300.137 358.539 301.167 358.289 302.208 358.29H340.879C341.032 358.29 341.179 358.365 341.288 358.497C341.396 358.63 341.457 358.809 341.457 358.997C341.457 359.184 341.396 359.363 341.288 359.496C341.179 359.628 341.032 359.703 340.879 359.703H302.208C300.415 359.705 298.696 360.576 297.429 362.126C296.162 363.675 295.45 365.776 295.45 367.966C295.45 370.156 296.162 372.257 297.429 373.806C298.696 375.355 300.415 376.227 302.208 376.229H340.879C341.032 376.229 341.179 376.303 341.288 376.436C341.396 376.568 341.457 376.748 341.457 376.935V376.935Z" fill="#3F3D56"/>
<path d="M340.532 362.951H300.069C300.053 362.952 300.038 362.948 300.024 362.941C300.01 362.934 299.997 362.924 299.986 362.91C299.976 362.897 299.967 362.882 299.961 362.864C299.955 362.847 299.952 362.829 299.952 362.81C299.952 362.792 299.955 362.773 299.961 362.756C299.967 362.739 299.976 362.723 299.986 362.71C299.997 362.697 300.01 362.686 300.024 362.679C300.038 362.672 300.053 362.669 300.069 362.669H340.532C340.563 362.669 340.592 362.684 340.613 362.711C340.635 362.737 340.647 362.773 340.647 362.81C340.647 362.847 340.635 362.883 340.613 362.91C340.592 362.936 340.563 362.951 340.532 362.951V362.951Z" fill="#CCCCCC"/>
<path d="M340.532 366.342H300.069C300.053 366.342 300.038 366.338 300.024 366.331C300.01 366.324 299.997 366.314 299.986 366.301C299.976 366.287 299.967 366.272 299.961 366.255C299.955 366.237 299.952 366.219 299.952 366.2C299.952 366.182 299.955 366.163 299.961 366.146C299.967 366.129 299.976 366.113 299.986 366.1C299.997 366.087 300.01 366.077 300.024 366.07C300.038 366.063 300.053 366.059 300.069 366.059H340.532C340.563 366.059 340.592 366.074 340.613 366.101C340.635 366.127 340.647 366.163 340.647 366.2C340.647 366.238 340.635 366.273 340.613 366.3C340.592 366.326 340.563 366.341 340.532 366.342V366.342Z" fill="#CCCCCC"/>
<path d="M340.532 369.731H300.069C300.053 369.732 300.038 369.728 300.024 369.721C300.01 369.714 299.997 369.704 299.986 369.69C299.976 369.677 299.967 369.662 299.961 369.645C299.955 369.627 299.952 369.609 299.952 369.59C299.952 369.572 299.955 369.553 299.961 369.536C299.967 369.519 299.976 369.503 299.986 369.49C299.997 369.477 300.01 369.466 300.024 369.459C300.038 369.452 300.053 369.449 300.069 369.449H340.532C340.563 369.449 340.592 369.464 340.613 369.491C340.635 369.517 340.647 369.553 340.647 369.59C340.647 369.628 340.635 369.663 340.613 369.69C340.592 369.716 340.563 369.731 340.532 369.731V369.731Z" fill="#CCCCCC"/>
<path d="M340.532 373.121H300.069C300.053 373.121 300.038 373.118 300.024 373.111C300.01 373.104 299.997 373.093 299.986 373.08C299.976 373.067 299.967 373.052 299.961 373.034C299.955 373.017 299.952 372.999 299.952 372.98C299.952 372.961 299.955 372.943 299.961 372.926C299.967 372.909 299.976 372.893 299.986 372.88C299.997 372.867 300.01 372.856 300.024 372.849C300.038 372.842 300.053 372.839 300.069 372.839H340.532C340.563 372.839 340.592 372.854 340.613 372.881C340.635 372.907 340.647 372.943 340.647 372.98C340.647 373.017 340.635 373.053 340.613 373.08C340.592 373.106 340.563 373.121 340.532 373.121V373.121Z" fill="#CCCCCC"/>
<path d="M429.25 325.603H412.094C411.931 325.603 411.771 325.648 411.625 325.736L407.295 328.384C407.152 328.458 407.031 328.582 406.945 328.74C406.86 328.898 406.814 329.083 406.814 329.272C406.814 329.461 406.86 329.646 406.945 329.804C407.031 329.961 407.152 330.085 407.295 330.159L411.625 332.807C411.771 332.895 411.931 332.941 412.094 332.941H429.25C429.486 332.957 429.719 332.86 429.896 332.669C430.074 332.478 430.183 332.209 430.2 331.92V326.623C430.183 326.335 430.074 326.066 429.896 325.875C429.719 325.684 429.486 325.586 429.25 325.603Z" fill="#3F3D56"/>
<path d="M430.2 326.623V331.92C430.183 332.209 430.074 332.478 429.896 332.669C429.719 332.86 429.486 332.957 429.25 332.941H425.832V325.603H429.25C429.486 325.586 429.719 325.684 429.896 325.875C430.074 326.066 430.183 326.335 430.2 326.623V326.623Z" fill="#835AFD"/>
<path d="M429.121 285.977C429.898 285.567 430.737 285.363 431.583 285.377C432.43 285.391 433.264 285.624 434.031 286.059C434.799 286.495 435.483 287.123 436.038 287.904C436.592 288.685 437.006 289.6 437.251 290.59C437.328 290.904 437.386 291.223 437.426 291.547L461.417 306.082L466.969 301.587L473.877 311.303L465.399 319.715C464.38 320.719 463.123 321.294 461.814 321.356C460.506 321.417 459.216 320.962 458.137 320.057L433.796 299.492C433.615 299.586 433.43 299.668 433.242 299.739C432.432 300.038 431.579 300.125 430.739 299.994C429.9 299.862 429.092 299.516 428.37 298.976C427.648 298.437 427.027 297.718 426.548 296.865C426.069 296.012 425.744 295.045 425.592 294.028C425.547 293.733 425.517 293.434 425.503 293.134C425.436 291.633 425.746 290.142 426.393 288.862C427.04 287.583 427.992 286.576 429.121 285.977V285.977Z" fill="#FFB8B8"/>
<path d="M479.088 375.467H452.875C452.875 376.388 425.858 377.135 425.858 377.135C425.434 377.525 425.048 377.972 424.706 378.469C423.68 379.964 423.119 381.854 423.123 383.806V385.14C423.123 387.351 423.843 389.472 425.122 391.035C426.402 392.599 428.138 393.478 429.948 393.479H479.088C480.898 393.477 482.633 392.598 483.913 391.034C485.192 389.471 485.912 387.351 485.914 385.14V383.806C485.911 381.595 485.191 379.476 483.912 377.913C482.632 376.35 480.898 375.47 479.088 375.467V375.467Z" fill="#3F3D56"/>
<path d="M450.574 449.183H457.672V393.147H450.574V449.183Z" fill="#3F3D56"/>
<path d="M430.372 448.879C430.372 449.816 441.128 449.241 454.396 449.241C467.664 449.241 478.42 449.816 478.42 448.879C478.42 447.942 467.664 440.511 454.396 440.511C441.128 440.511 430.372 447.942 430.372 448.879Z" fill="#3F3D56"/>
<path d="M436.779 442.311L430.086 442.31L426.901 421.099L436.78 421.099L436.779 442.311Z" fill="#FFB8B8"/>
<path d="M438.487 450.238L416.903 450.238V449.904C416.903 448.556 417.12 447.221 417.542 445.976C417.964 444.731 418.583 443.599 419.363 442.646C420.143 441.693 421.069 440.937 422.089 440.421C423.108 439.905 424.2 439.64 425.304 439.64H425.304L438.487 439.641L438.487 450.238Z" fill="#2F2E41"/>
<path d="M426.767 429.157L413.423 392.595C412.308 389.514 412.185 386.032 413.077 382.845C413.97 379.657 415.812 376.997 418.238 375.395L447.183 356.431L460.392 355.058L472.576 353.705L472.664 353.887C472.776 354.119 475.396 359.647 473.625 365.709C472.282 370.307 468.788 373.898 463.241 376.384C450.292 382.184 435.335 387.142 429.505 389.004C429.247 389.084 429.006 389.23 428.798 389.433C428.59 389.635 428.419 389.889 428.297 390.178C428.175 390.463 428.102 390.776 428.084 391.097C428.065 391.419 428.102 391.741 428.19 392.045L440.588 426.076C440.718 426.508 440.764 426.97 440.724 427.427C440.685 427.884 440.559 428.324 440.358 428.713C440.157 429.101 439.886 429.428 439.565 429.669C439.245 429.909 438.883 430.056 438.508 430.098L429.244 430.923C429.166 430.932 429.087 430.936 429.009 430.936C428.535 430.936 428.071 430.768 427.673 430.452C427.275 430.136 426.961 429.687 426.767 429.157V429.157Z" fill="#2F2E41"/>
<path d="M440.055 442.311L433.362 442.31L430.177 421.099L440.056 421.099L440.055 442.311Z" fill="#FFB8B8"/>
<path d="M441.763 450.238L420.179 450.238V449.904C420.179 448.556 420.396 447.221 420.818 445.976C421.24 444.731 421.859 443.599 422.639 442.646C423.419 441.693 424.346 440.937 425.365 440.421C426.384 439.905 427.477 439.64 428.58 439.64H428.58L441.763 439.641L441.763 450.238Z" fill="#2F2E41"/>
<path d="M430.59 431.158L417.245 394.597C416.13 391.515 416.007 388.034 416.9 384.846C417.792 381.658 419.634 378.999 422.06 377.396L451.005 358.432L464.214 357.059L476.398 355.706L476.486 355.888C476.598 356.12 479.218 361.648 477.447 367.71C476.104 372.308 472.61 375.9 467.063 378.385C454.114 384.186 439.157 389.143 433.327 391.005C433.069 391.086 432.828 391.232 432.62 391.434C432.412 391.636 432.242 391.89 432.12 392.179C431.997 392.464 431.924 392.777 431.906 393.099C431.888 393.42 431.924 393.743 432.012 394.046L444.41 428.078C444.54 428.509 444.586 428.972 444.547 429.429C444.507 429.886 444.382 430.326 444.181 430.714C443.98 431.103 443.708 431.43 443.387 431.67C443.067 431.91 442.705 432.057 442.33 432.1L433.067 432.924C432.988 432.933 432.91 432.938 432.832 432.938C432.357 432.937 431.893 432.769 431.495 432.454C431.097 432.138 430.783 431.688 430.59 431.158V431.158Z" fill="#2F2E41"/>
<path d="M423.938 319.466C418.33 310.353 413.897 300.244 410.793 289.492C410.613 288.849 410.626 288.149 410.829 287.516C411.032 286.884 411.412 286.359 411.902 286.037L431.092 273.475C431.402 273.27 431.747 273.154 432.099 273.137C432.452 273.119 432.803 273.201 433.126 273.374C433.455 273.549 433.747 273.813 433.98 274.146C434.213 274.479 434.38 274.873 434.47 275.298C436.703 285.659 440.902 295.232 446.725 303.243C446.965 303.569 447.141 303.958 447.239 304.379C447.337 304.801 447.355 305.244 447.292 305.675C447.231 306.1 447.092 306.502 446.885 306.851C446.678 307.2 446.408 307.486 446.097 307.689L426.907 320.251C426.416 320.571 425.848 320.668 425.305 320.524C424.761 320.38 424.277 320.005 423.938 319.466V319.466Z" fill="#CCCCCC"/>
<path d="M425.248 318.264C425.351 318.421 425.496 318.53 425.657 318.571C425.819 318.611 425.987 318.582 426.133 318.487L445.323 305.925C445.416 305.865 445.497 305.78 445.559 305.677C445.62 305.573 445.662 305.453 445.679 305.326C445.699 305.193 445.694 305.055 445.663 304.925C445.632 304.794 445.577 304.674 445.502 304.574C439.507 296.327 435.184 286.472 432.885 275.805C432.859 275.674 432.807 275.551 432.736 275.448C432.664 275.344 432.573 275.262 432.471 275.208C432.375 275.156 432.27 275.131 432.165 275.137C432.06 275.142 431.957 275.177 431.865 275.239L412.676 287.801C412.53 287.897 412.417 288.052 412.355 288.24C412.293 288.427 412.287 288.634 412.337 288.827C415.386 299.386 419.74 309.314 425.248 318.264V318.264Z" fill="white"/>
<path d="M487.689 316.115L472.66 323.092L468.991 310.64C468.504 308.986 468.511 307.176 469.011 305.528C469.51 303.88 470.471 302.501 471.722 301.635V301.635C472.988 300.758 474.469 300.464 475.897 300.804C477.325 301.145 478.606 302.098 479.51 303.492L487.689 316.115Z" fill="#6C63FF"/>
<path d="M449.463 365.453C449.147 365.18 448.882 364.828 448.685 364.419C448.489 364.011 448.367 363.557 448.325 363.086C446.4 341.132 447.741 323.952 452.424 310.562C453.248 308.253 454.491 306.202 456.057 304.564C457.624 302.925 459.474 301.742 461.469 301.103L473.618 300.354L473.681 300.391C476.422 302.032 478.658 304.708 480.056 308.023C481.455 311.338 481.941 315.115 481.444 318.795C477.537 331.379 474.265 344.48 476.76 355.049C476.865 355.491 476.896 355.954 476.85 356.411C476.805 356.867 476.684 357.308 476.496 357.707C476.314 358.092 476.069 358.427 475.776 358.692C475.484 358.957 475.15 359.146 474.795 359.247L451.656 365.972C451.281 366.081 450.892 366.091 450.514 366.002C450.136 365.912 449.777 365.725 449.463 365.453Z" fill="#835AFD"/>
<path d="M469.563 294.81C476.97 294.81 482.974 287.475 482.974 278.426C482.974 269.377 476.97 262.041 469.563 262.041C462.157 262.041 456.153 269.377 456.153 278.426C456.153 287.475 462.157 294.81 469.563 294.81Z" fill="#FFB8B8"/>
<path d="M432.351 291.403L421.9 297.04C421.502 297.253 421.052 297.266 420.647 297.074C420.242 296.882 419.916 296.502 419.74 296.017L419.481 295.301C419.307 294.816 419.296 294.265 419.453 293.77C419.61 293.276 419.921 292.877 420.318 292.662L430.77 287.026C431.167 286.812 431.618 286.8 432.023 286.991C432.428 287.183 432.754 287.563 432.93 288.048L433.188 288.764C433.363 289.249 433.374 289.8 433.217 290.295C433.06 290.79 432.749 291.188 432.351 291.403V291.403Z" fill="#CCCCCC"/>
<path d="M436.174 300.075L425.722 305.712C425.325 305.925 424.874 305.938 424.469 305.746C424.064 305.554 423.738 305.174 423.562 304.689L423.303 303.974C423.129 303.488 423.118 302.937 423.275 302.443C423.432 301.948 423.743 301.549 424.141 301.334L434.592 295.698C434.99 295.484 435.44 295.472 435.845 295.663C436.25 295.855 436.576 296.235 436.752 296.72L437.011 297.436C437.186 297.922 437.196 298.472 437.039 298.967C436.882 299.462 436.571 299.86 436.174 300.075V300.075Z" fill="#CCCCCC"/>
<path d="M444.234 333.948L420.933 311.49C420.747 311.569 420.559 311.638 420.367 311.694C419.545 311.929 418.691 311.95 417.862 311.755C417.032 311.561 416.245 311.155 415.553 310.565C414.855 309.975 414.269 309.209 413.833 308.319C413.398 307.43 413.123 306.436 413.026 305.406C412.87 303.76 413.174 302.097 413.889 300.687C414.603 299.278 415.686 298.205 416.963 297.643C417.759 297.293 418.607 297.154 419.451 297.233C420.295 297.312 421.116 297.608 421.859 298.102C422.603 298.596 423.253 299.276 423.766 300.097C424.28 300.919 424.646 301.864 424.84 302.871C424.9 303.19 424.941 303.514 424.965 303.84L448.16 320.188L453.932 316.128L460.326 326.356L451.364 334.161C450.315 335.067 449.055 335.535 447.77 335.497C446.486 335.459 445.245 334.916 444.234 333.948V333.948Z" fill="#FFB8B8"/>
<path d="M463.17 329.541L449.875 318.496L456.123 307.684C456.953 306.249 458.171 305.218 459.563 304.773C460.954 304.329 462.43 304.5 463.728 305.256V305.256C465.042 306.021 466.088 307.335 466.678 308.96C467.268 310.584 467.364 312.414 466.947 314.117L463.17 329.541Z" fill="#6C63FF"/>
<path d="M464.647 275.985C461.2 278.868 456.674 281.83 453.154 278.761C450.842 276.746 450.114 273.014 451.051 269.739C452.737 263.849 457.368 261.256 461.797 259.269C467.554 256.685 473.823 254.63 479.767 256.48C485.71 258.33 490.963 265.361 489.89 272.739C489.027 278.672 484.446 283.609 485.097 289.583C485.751 295.595 491.285 298.759 496.171 299.834C501.056 300.908 506.523 301.254 510.034 305.541C514.513 311.01 513.395 320.786 509.18 326.561C504.965 332.336 498.606 334.953 492.443 336.733C484.277 339.09 475.446 340.329 467.691 336.416C459.936 332.504 453.901 321.971 456.148 312.094C457.097 307.922 459.332 304.397 461.492 300.964C463.653 297.532 465.84 293.942 466.664 289.731C467.351 286.222 466.843 282.147 464.938 279.515C464.592 279.054 464.374 278.471 464.315 277.849C464.257 277.228 464.361 276.599 464.614 276.055L464.647 275.985Z" fill="#2F2E41"/>
<path d="M212.762 355.592C209.307 357.076 205.596 357.448 201.989 356.672C198.382 355.895 194.999 353.997 192.166 351.159C184.952 343.762 182.691 331.575 180.85 320.29C179.036 309.163 177.221 298.037 175.407 286.911L186.803 296.498C194.998 303.393 203.379 310.508 209.053 320.494C214.727 330.481 217.204 344.113 212.645 354.919" fill="#835AFD"/>
<path d="M211.788 396.004C212.942 385.739 214.128 375.342 213.319 364.967C212.6 355.753 210.299 346.754 205.615 339.375C203.129 335.465 200.103 332.116 196.675 329.477C195.781 328.787 194.958 330.518 195.848 331.205C201.78 335.785 206.369 342.549 208.952 350.521C211.805 359.387 212.263 369.051 211.771 378.468C211.474 384.163 210.844 389.821 210.209 395.472C210.159 395.727 210.19 395.997 210.296 396.225C210.402 396.454 210.575 396.624 210.781 396.703C210.99 396.772 211.213 396.737 211.402 396.606C211.591 396.475 211.729 396.259 211.788 396.004H211.788Z" fill="#F2F2F2"/>
<path d="M200.679 377.84C199.196 380.592 197.159 382.831 194.763 384.342C192.367 385.853 189.693 386.584 186.998 386.466C180.073 386.064 174.3 380.159 169.103 374.553L153.731 357.971L163.905 357.376C171.221 356.948 178.726 356.549 185.695 359.306C192.663 362.062 199.09 368.696 200.364 377.509" fill="#E559F9"/>
<path d="M215.048 401.905C209.496 389.903 203.057 376.564 191.551 372.301C188.351 371.12 184.997 370.696 181.667 371.054C180.618 371.165 180.88 373.141 181.927 373.031C187.508 372.464 193.078 374.265 197.7 378.129C202.147 381.827 205.609 386.969 208.54 392.421C210.335 395.761 211.943 399.243 213.552 402.72C214.066 403.831 215.568 403.029 215.048 401.905V401.905Z" fill="#F2F2F2"/>
<path d="M223.943 414.537C223.756 411.889 222.978 409.355 221.693 407.21C220.409 405.064 218.667 403.391 216.658 402.372V395.433H207.133V402.59C205.223 403.66 203.579 405.329 202.369 407.428C201.158 409.526 200.425 411.98 200.244 414.537L198.005 446.347H226.183L223.943 414.537Z" fill="#835AFD"/>
<path d="M474.143 231.815C480.447 233.86 486.594 232.325 487.872 228.385C489.151 224.445 485.077 219.593 478.773 217.547C472.469 215.501 466.323 217.037 465.044 220.977C463.766 224.917 467.84 229.769 474.143 231.815Z" fill="#835AFD"/>
<path d="M499.64 147.572C481.842 141.887 464.255 146.522 460.266 157.955C460.229 158.06 459.986 158.807 459.669 159.785C459.203 161.219 459.636 162.879 460.872 164.4C462.107 165.921 464.044 167.179 466.256 167.897L466.256 167.897C467.353 168.253 468.484 168.465 469.585 168.521C470.687 168.578 471.737 168.478 472.675 168.227C473.613 167.975 474.421 167.578 475.053 167.057C475.685 166.536 476.129 165.903 476.358 165.192C476.573 164.526 476.722 164.066 476.731 164.038C477.308 162.258 478.59 160.741 480.451 159.635C482.312 158.53 484.687 157.875 487.344 157.733C490.001 157.592 492.847 157.97 495.603 158.83C498.359 159.69 500.93 161.003 503.062 162.638C505.195 164.274 506.816 166.177 507.766 168.159C508.715 170.142 508.961 172.136 508.479 173.945C507.997 175.754 506.804 177.317 505.016 178.478C503.229 179.64 500.909 180.361 498.285 180.57L498.287 180.573C498.287 180.573 484.808 181.673 478.984 187.293L478.986 187.294C477.898 188.479 477.107 189.819 476.638 191.271C476.444 191.868 474.804 197.106 473.534 201.378C473.096 202.852 473.566 204.545 474.842 206.093C476.118 207.64 478.098 208.918 480.355 209.65L480.355 209.65C481.489 210.018 482.659 210.237 483.798 210.294C484.936 210.352 486.021 210.247 486.99 209.985C487.958 209.723 488.791 209.31 489.441 208.769C490.091 208.228 490.544 207.57 490.776 206.833C491.999 202.94 493.445 198.415 493.552 198.087C494.905 193.916 502.465 191.774 508.446 190.719C515.334 189.504 520.942 186.623 524.197 182.376C524.893 181.51 525.429 180.565 525.794 179.559C526.704 176.754 526.748 173.699 525.925 170.569C525.101 167.439 523.426 164.297 520.995 161.324C518.563 158.351 515.425 155.605 511.76 153.245C508.095 150.884 503.976 148.956 499.64 147.572V147.572Z" fill="#835AFD"/>
</g>
<defs>
<linearGradient id="paint0_linear" x1="357.837" y1="148.422" x2="369.916" y2="182.534" gradientUnits="userSpaceOnUse">
<stop stop-color="#485BFF"/>
<stop offset="1" stop-color="#FF59F8"/>
</linearGradient>
<linearGradient id="paint1_linear" x1="357.837" y1="148.422" x2="369.916" y2="182.534" gradientUnits="userSpaceOnUse">
<stop stop-color="#485BFF"/>
<stop offset="1" stop-color="#FF59F8"/>
</linearGradient>
<linearGradient id="paint2_linear" x1="357.837" y1="148.422" x2="369.916" y2="182.534" gradientUnits="userSpaceOnUse">
<stop stop-color="#485BFF"/>
<stop offset="1" stop-color="#FF59F8"/>
</linearGradient>
<linearGradient id="paint3_linear" x1="351.242" y1="132.423" x2="411.453" y2="206.97" gradientUnits="userSpaceOnUse">
<stop stop-color="#485BFF"/>
<stop offset="1" stop-color="#FF59F8"/>
</linearGradient>
<clipPath id="clip0">
<rect width="377.838" height="333.465" fill="white" transform="translate(153.208 116.773)"/>
</clipPath>
</defs>
</svg>
